<svg width="255" height="49" viewBox="0 0 255 49" fill="none" xmlns="http://www.w3.org/2000/svg">
<rect width="255" height="49" fill="#E5E5E5"/>
<g clip-path="url(#clip0)">
<rect x="-515" y="-2853" width="1600" height="3018" fill="white"/>
<rect x="-514" y="-88" width="1600" height="253" fill="#2F303A"/>
<path d="M255 24.8271C255 31.5023 251.952 37.5455 247.024 41.9199C242.095 46.2943 235.287 49 227.767 49C220.247 49 213.439 46.2943 208.51 41.9199C203.582 37.5455 200.534 31.5023 200.534 24.8271C200.534 18.152 203.582 12.1088 208.51 7.73436C213.439 3.35993 220.247 0.654297 227.767 0.654297C235.287 0.654297 242.095 3.35993 247.024 7.73436C251.952 12.1088 255 18.152 255 24.8271Z" fill="white" fill-opacity="0.1"/>
<g clip-path="url(#clip1)">
<path d="M240.139 35.8148V35.8139H240.145V27.7544C240.145 23.8117 239.189 20.7745 233.996 20.7745C231.5 20.7745 229.825 21.9905 229.141 23.1433H229.069V21.1426H224.145V35.8139H229.272V28.5492C229.272 26.6365 229.68 24.7869 232.349 24.7869C234.978 24.7869 235.018 26.9697 235.018 28.6719V35.8148H240.139Z" fill="white"/>
<path d="M215.797 21.1436H220.93V35.8148H215.797V21.1436Z" fill="white"/>
<path d="M218.361 13.8395C216.72 13.8395 215.388 15.0216 215.388 16.4783C215.388 17.9351 216.72 19.1419 218.361 19.1419C220.002 19.1419 221.334 17.9351 221.334 16.4783C221.333 15.0216 220.001 13.8395 218.361 13.8395V13.8395Z" fill="white"/>
</g>
<path d="M188.155 24.8271C188.155 31.5023 185.107 37.5455 180.179 41.9199C175.251 46.2943 168.443 49 160.922 49C153.402 49 146.594 46.2943 141.666 41.9199C136.738 37.5455 133.689 31.5023 133.689 24.8271C133.689 18.152 136.738 12.1088 141.666 7.73436C146.594 3.35993 153.402 0.654297 160.922 0.654297C168.443 0.654297 175.251 3.35993 180.179 7.73436C185.107 12.1088 188.155 18.152 188.155 24.8271Z" fill="white" fill-opacity="0.1"/>
<g clip-path="url(#clip2)">
<path d="M165.046 17.4883H167.306V13.9942C166.916 13.9466 165.575 13.8395 164.013 13.8395C160.754 13.8395 158.522 15.6589 158.522 19.0028V22.0802H154.926V25.9863H158.522V35.8148H162.931V25.9872H166.381L166.929 22.0811H162.93V19.3901C162.931 18.2611 163.273 17.4883 165.046 17.4883V17.4883Z" fill="white"/>
</g>
<path d="M121.311 24.8271C121.311 31.5023 118.262 37.5455 113.334 41.9199C108.406 46.2943 101.598 49 94.0775 49C86.5573 49 79.7491 46.2943 74.8208 41.9199C69.8926 37.5455 66.8445 31.5023 66.8445 24.8271C66.8445 18.152 69.8926 12.1088 74.8208 7.73436C79.7491 3.35993 86.5573 0.654297 94.0775 0.654297C101.598 0.654297 108.406 3.35993 113.334 7.73436C118.262 12.1088 121.311 18.152 121.311 24.8271Z" fill="#2196F3"/>
<g clip-path="url(#clip3)">
<path d="M106.456 18.0134C105.535 18.3719 104.554 18.6095 103.532 18.7249C104.584 18.1672 105.387 17.291 105.764 16.2348C104.783 16.7539 103.7 17.1207 102.546 17.3253C101.614 16.4449 100.287 15.8997 98.8385 15.8997C96.0286 15.8997 93.7664 17.9241 93.7664 20.406C93.7664 20.7631 93.8004 21.1064 93.884 21.4333C89.6644 21.2506 85.9307 19.4555 83.4225 16.721C82.9846 17.3954 82.7277 18.1672 82.7277 18.9982C82.7277 20.5584 83.6329 21.9415 84.9822 22.7422C84.1667 22.7285 83.3668 22.5183 82.689 22.1873C82.689 22.2011 82.689 22.2189 82.689 22.2368C82.689 24.4261 84.4483 26.2445 86.7554 26.6634C86.3423 26.7637 85.892 26.8118 85.4247 26.8118C85.0998 26.8118 84.7717 26.7953 84.4638 26.7349C85.1214 28.519 86.9875 29.8306 89.2064 29.8732C87.4796 31.0722 85.287 31.7947 82.9134 31.7947C82.4972 31.7947 82.0979 31.7782 81.6987 31.7329C83.947 33.0198 86.6115 33.7546 89.4849 33.7546C98.8246 33.7546 103.931 26.8873 103.931 20.9348C103.931 20.7356 103.923 20.5433 103.912 20.3524C104.92 19.7179 105.766 18.9254 106.456 18.0134Z" fill="white"/>
</g>
<path d="M54.466 24.8271C54.466 31.5023 51.4179 37.5455 46.4897 41.9199C41.5615 46.2943 34.7532 49 27.233 49C19.7128 49 12.9046 46.2943 7.97636 41.9199C3.04816 37.5455 0 31.5023 0 24.8271C0 18.152 3.04816 12.1088 7.97636 7.73436C12.9046 3.35993 19.7128 0.654297 27.233 0.654297C34.7532 0.654297 41.5615 3.35993 46.4897 7.73436C51.4179 12.1088 54.466 18.152 54.466 24.8271Z" fill="white" fill-opacity="0.1"/>
<g clip-path="url(#clip4)">
<path d="M39.587 20.3003C39.529 19.1326 39.3163 18.3299 39.0116 17.6343C38.6972 16.896 38.2136 16.2349 37.5799 15.6854C36.9608 15.1273 36.2112 14.6937 35.389 14.419C34.6009 14.1485 33.7012 13.9597 32.3858 13.9082C31.0605 13.8524 30.6398 13.8395 27.2785 13.8395C23.9172 13.8395 23.4965 13.8524 22.1762 13.9039C20.8607 13.9554 19.9564 14.1443 19.1729 14.4147C18.3409 14.6937 17.5962 15.123 16.9771 15.6854C16.3484 16.2349 15.86 16.9003 15.5504 17.6301C15.2456 18.3299 15.0329 19.1283 14.9749 20.2959C14.912 21.4723 14.8975 21.8457 14.8975 24.8293C14.8975 27.8128 14.912 28.1863 14.97 29.3583C15.028 30.5259 15.2409 31.3287 15.5456 32.0242C15.86 32.7626 16.3484 33.4236 16.9771 33.9731C17.5962 34.5312 18.3458 34.9649 19.168 35.2395C19.9564 35.51 20.8558 35.6988 22.1714 35.7503C23.4916 35.802 23.9125 35.8147 27.2738 35.8147C30.635 35.8147 31.0558 35.802 32.3761 35.7503C33.6916 35.6988 34.5959 35.51 35.3794 35.2395C37.0432 34.6686 38.3587 33.5009 39.0019 32.0242C39.3065 31.3245 39.5194 30.5259 39.5774 29.3583C39.6354 28.1863 39.6499 27.8128 39.6499 24.8293C39.6499 21.8457 39.645 21.4723 39.587 20.3003ZM37.3576 29.2724C37.3043 30.3456 37.1012 30.9252 36.9319 31.3115C36.5159 32.2689 35.6599 33.0287 34.5814 33.398C34.1461 33.5482 33.4885 33.7285 32.2841 33.7756C30.9783 33.8272 30.5867 33.84 27.2834 33.84C23.9802 33.84 23.5836 33.8272 22.2825 33.7756C21.0734 33.7285 20.4205 33.5482 19.9853 33.398C19.4485 33.2219 18.96 32.9428 18.5634 32.578C18.1524 32.2216 17.838 31.7923 17.6396 31.3159C17.4704 30.9295 17.2673 30.3456 17.2142 29.2768C17.156 28.1177 17.1416 27.7699 17.1416 24.8378C17.1416 21.9058 17.156 21.5538 17.2142 20.399C17.2673 19.3258 17.4704 18.7463 17.6396 18.3599C17.838 17.8833 18.1524 17.4499 18.5684 17.0977C18.9696 16.7328 19.4533 16.4538 19.9902 16.2779C20.4254 16.1276 21.0833 15.9474 22.2874 15.9001C23.5932 15.8486 23.9851 15.8357 27.2881 15.8357C30.5963 15.8357 30.9879 15.8486 32.289 15.9001C33.4981 15.9474 34.151 16.1276 34.5863 16.2779C35.123 16.4538 35.6116 16.7328 36.0081 17.0977C36.4192 17.4541 36.7336 17.8833 36.9319 18.3599C37.1012 18.7463 37.3043 19.33 37.3576 20.399C37.4156 21.5581 37.4301 21.9058 37.4301 24.8378C37.4301 27.7699 37.4156 28.1133 37.3576 29.2724Z" fill="white"/>
<path d="M27.2787 19.1841C23.7677 19.1841 20.9189 21.7125 20.9189 24.8292C20.9189 27.9459 23.7677 30.4744 27.2787 30.4744C30.79 30.4744 33.6385 27.9459 33.6385 24.8292C33.6385 21.7125 30.79 19.1841 27.2787 19.1841ZM27.2787 28.4911C25.0009 28.4911 23.1533 26.8513 23.1533 24.8292C23.1533 22.8072 25.0009 21.1674 27.2787 21.1674C29.5567 21.1674 31.4042 22.8072 31.4042 24.8292C31.4042 26.8513 29.5567 28.4911 27.2787 28.4911V28.4911Z" fill="white"/>
<path d="M35.3749 18.961C35.3749 19.6887 34.7101 20.2788 33.89 20.2788C33.0701 20.2788 32.4053 19.6887 32.4053 18.961C32.4053 18.233 33.0701 17.6431 33.89 17.6431C34.7101 17.6431 35.3749 18.233 35.3749 18.961V18.961Z" fill="white"/>
</g>
</g>
<defs>
<clipPath id="clip0">
<rect x="-515" y="-2853" width="1600" height="3018" fill="white"/>
</clipPath>
<clipPath id="clip1">
<rect x="215.388" y="13.8395" width="24.7573" height="21.9753" fill="white"/>
</clipPath>
<clipPath id="clip2">
<rect x="148.544" y="13.8395" width="24.7573" height="21.9753" fill="white"/>
</clipPath>
<clipPath id="clip3">
<rect x="81.6987" y="13.8395" width="24.7573" height="21.9753" fill="white"/>
</clipPath>
<clipPath id="clip4">
<rect x="14.8542" y="13.8395" width="24.7573" height="21.9753" fill="white"/>
</clipPath>
</defs>
</svg>
